# xmcd CD database file
# Copyright (C) 1996 Ti Kan
#
# Track frame offsets:
# 	150
# 	16147
# 	39735
# 	56885
# 	78890
# 	97505
# 	121155
# 	136130
# 	152187
# 	170152
# 	183797
# 	208410
# 	232327
# 	250015
# 	269417
#
# Disc length: 4027 seconds
#
# Revision: 1
# Processed by: cddbd v1.4b41PL1 Copyright (c) Steve Scherf et al.
# Submitted via: DiscPlay 3.4.1
#
DISCID=c90fb90f
DTITLE=Duffy Bishop Band - Bottled Oddities
DYEAR=1900
DGENRE=
TTITLE0=Evil
TTITLE1=Reckless Blues
TTITLE2=Zibbida Zabbida Zalhody-Hody Zuma
TTITLE3=As Life Goes On
TTITLE4=Take Me Down
TTITLE5=Chord With Me Henry
TTITLE6=Walkin' Round in Circles
TTITLE7=Tell Me Why
TTITLE8=Louisiana Flood
TTITLE9=Come On Out
TTITLE10=Bath Of Love
TTITLE11=Lolnely
TTITLE12=Fall Right Down
TTITLE13=Ten Minute Kiss
TTITLE14=My House
EXTD=
EXTT0=
EXTT1=
EXTT2=
EXTT3=
EXTT4=
EXTT5=
EXTT6=
EXTT7=
EXTT8=
EXTT9=
EXTT10=
EXTT11=
EXTT12=
EXTT13=
EXTT14=
PLAYORDER=
